<svg id="1ad49c68-ac6b-44d0-b0a7-8d6859d549bf" data-name="OBJECTS" xmlns="http://www.w3.org/2000/svg" viewBox="0 0 198.16 46.95"><title>Logo_2</title><circle cx="57.16" cy="106.7" r="22.79" transform="matrix(0.04, -1, 1, 0.04, -84.99, 76.96)" fill="#fff"/><path d="M56.82,82.54a23.35,23.35,0,1,0,23.35,23.35A23.35,23.35,0,0,0,56.82,82.54Zm3.25,38.77A18.67,18.67,0,0,1,41.4,102.64c0-10.31,7.48-17.79,17.79-17.79a18.67,18.67,0,0,1,18.67,18.67C77.85,113.83,70.37,121.31,60.06,121.31Z" transform="translate(-33.23 -82.54)" fill="#2cb6e4"/><path d="M59.26,126.91A23.46,23.46,0,0,1,41.44,88.19a23.46,23.46,0,1,0,33.08,33.08A23.37,23.37,0,0,1,59.26,126.91Z" transform="translate(-33.23 -82.54)" fill="#fff"/><path d="M76.78,102.91a18.13,18.13,0,0,0-17-17,14.6,14.6,0,0,0-15.52,15.52,18.13,18.13,0,0,0,17,17A14.6,14.6,0,0,0,76.78,102.91ZM59.46,116.75A14.42,14.42,0,0,1,46,103.24,11.61,11.61,0,0,1,58.3,90.9,14.42,14.42,0,0,1,71.81,104.4,11.61,11.61,0,0,1,59.46,116.75Z" transform="translate(-33.23 -82.54)" fill="#67b432"/><path d="M58.26,87.47a18.13,18.13,0,0,1,17,17,14.9,14.9,0,0,1-3.51,10.48,14.75,14.75,0,0,0,5-12,18.13,18.13,0,0,0-17-17,14.75,14.75,0,0,0-12,5A14.9,14.9,0,0,1,58.26,87.47Z" transform="translate(-33.23 -82.54)" fill="#c1195a"/><path d="M70.93,104.16A14.7,14.7,0,0,0,58.54,91.77c-6.15-.69-10.57,3.73-9.88,9.88A14.7,14.7,0,0,0,61,114C67.2,114.74,71.62,110.31,70.93,104.16Zm-11.19,8.65A11.69,11.69,0,0,1,49.89,103c-0.55-4.89,3-8.41,7.86-7.86A11.69,11.69,0,0,1,67.61,105C68.16,109.85,64.64,113.37,59.74,112.82Z" transform="translate(-33.23 -82.54)" fill="#c52227"/><path d="M66.54,104.36a9.94,9.94,0,0,0-8.19-8.19A5.41,5.41,0,0,0,52,102.53a9.94,9.94,0,0,0,8.19,8.19A5.41,5.41,0,0,0,66.54,104.36Zm-7.22,5.54a7.91,7.91,0,0,1-6.52-6.52,4.3,4.3,0,0,1,5.06-5.06,7.91,7.91,0,0,1,6.52,6.52A4.3,4.3,0,0,1,59.32,109.9Z" transform="translate(-33.23 -82.54)" fill="#f7aa1e"/><path d="M63.21,104.63a7.73,7.73,0,0,0-5.13-5.13c-2.27-.56-3.65.82-3.09,3.09a7.73,7.73,0,0,0,5.13,5.13C62.39,108.28,63.77,106.9,63.21,104.63Zm-3.63,2.58a6.14,6.14,0,0,1-4.08-4.08c-0.45-1.81.65-2.91,2.46-2.46A6.14,6.14,0,0,1,62,104.74C62.49,106.55,61.39,107.65,59.58,107.2Z" transform="translate(-33.23 -82.54)" fill="#f7bacf"/><path d="M98.47,110.36a5.15,5.15,0,0,1-2-1,0.92,0.92,0,0,1-.34-0.74,0.85,0.85,0,0,1,.18-0.55,0.54,0.54,0,0,1,.43-0.23,1.19,1.19,0,0,1,.61.23,6,6,0,0,0,3.65,1.19,3.84,3.84,0,0,0,2.21-.54,1.77,1.77,0,0,0,.77-1.55,1.28,1.28,0,0,0-.72-1.19,9.48,9.48,0,0,0-2.3-.76,13.89,13.89,0,0,1-2.48-.74A3.7,3.7,0,0,1,97,103.33a2.87,2.87,0,0,1-.55-1.81,3.3,3.3,0,0,1,.6-2,4,4,0,0,1,1.68-1.33,6,6,0,0,1,2.47-.48,7.42,7.42,0,0,1,2.36.36,5,5,0,0,1,1.84,1.06,0.94,0.94,0,0,1,.36.74,0.84,0.84,0,0,1-.19.54,0.56,0.56,0,0,1-.44.23,1.18,1.18,0,0,1-.59-0.23,6.42,6.42,0,0,0-1.56-.91,4.92,4.92,0,0,0-1.75-.28,3.6,3.6,0,0,0-2.16.57,1.84,1.84,0,0,0-.77,1.57,1.45,1.45,0,0,0,.68,1.31,7.44,7.44,0,0,0,2.2.8,18.23,18.23,0,0,1,2.57.75,3.94,3.94,0,0,1,1.57,1.06,2.56,2.56,0,0,1,.58,1.74,3.2,3.2,0,0,1-.6,1.92,3.89,3.89,0,0,1-1.69,1.3,6.42,6.42,0,0,1-2.51.46A8.83,8.83,0,0,1,98.47,110.36Z" transform="translate(-33.23 -82.54)" fill="#fff"/><path d="M109.39,109.43a5.25,5.25,0,0,1-1.31-3.87v-6.8a0.92,0.92,0,0,1,.25-0.68,1,1,0,0,1,1.33,0,0.93,0.93,0,0,1,.25.68v6.93a3.75,3.75,0,0,0,.84,2.65,3.89,3.89,0,0,0,5,0,3.73,3.73,0,0,0,.85-2.65V98.75a0.93,0.93,0,0,1,.25-0.67,0.88,0.88,0,0,1,.67-0.26,0.9,0.9,0,0,1,.67.25,0.92,0.92,0,0,1,.25.68v6.8A5.46,5.46,0,0,1,109.39,109.43Z" transform="translate(-33.23 -82.54)" fill="#fff"/><path d="M131.36,104.06a0.71,0.71,0,0,1,.21.54v4.21a1.72,1.72,0,0,1-.17.88,1.21,1.21,0,0,1-.68.43,8.19,8.19,0,0,1-1.71.45,12.14,12.14,0,0,1-2,.16,6.79,6.79,0,0,1-3.33-.77,5.13,5.13,0,0,1-2.14-2.23,7.65,7.65,0,0,1-.74-3.49,7.56,7.56,0,0,1,.74-3.46,5.23,5.23,0,0,1,2.11-2.24,6.42,6.42,0,0,1,3.23-.78,7.11,7.11,0,0,1,2.33.37,5.08,5.08,0,0,1,1.83,1.07,0.89,0.89,0,0,1,.36.72,0.85,0.85,0,0,1-.18.55,0.54,0.54,0,0,1-.43.23,0.72,0.72,0,0,1-.29-0.05,2.42,2.42,0,0,1-.32-0.18,6.58,6.58,0,0,0-1.6-.91,4.85,4.85,0,0,0-1.66-.26,3.88,3.88,0,0,0-3.13,1.27,6.83,6.83,0,0,0,0,7.42,4.08,4.08,0,0,0,3.25,1.27,8.93,8.93,0,0,0,2.77-.43v-3.55h-2.36a0.81,0.81,0,0,1-.57-0.19,0.74,0.74,0,0,1,0-1,0.81,0.81,0,0,1,.57-0.19h3.29A0.76,0.76,0,0,1,131.36,104.06Z" transform="translate(-33.23 -82.54)" fill="#fff"/><path d="M145.66,109.87a0.72,0.72,0,0,1-.28.58,0.94,0.94,0,0,1-.62.23,0.79,0.79,0,0,1-.44-0.13,0.84,0.84,0,0,1-.31-0.39l-1.19-2.7h-6.59l-1.19,2.7a0.83,0.83,0,0,1-.32.39,0.84,0.84,0,0,1-.45.13,1,1,0,0,1-.64-0.23,0.72,0.72,0,0,1-.28-0.58,1,1,0,0,1,.09-0.36l5.08-11.11a1,1,0,0,1,.4-0.45,1.14,1.14,0,0,1,1.17,0,1,1,0,0,1,.41.45l5.08,11.11A1,1,0,0,1,145.66,109.87ZM136.89,106h5.27l-2.65-6Z" transform="translate(-33.23 -82.54)" fill="#fff"/><path d="M157.65,109.95a0.7,0.7,0,0,1-.26.55,0.9,0.9,0,0,1-.6.23,0.94,0.94,0,0,1-.81-0.45l-2.41-3.74a2.63,2.63,0,0,0-.88-0.91,2.51,2.51,0,0,0-1.22-.26h-2v4.39a0.94,0.94,0,0,1-.24.68,1,1,0,0,1-1.34,0,0.92,0.92,0,0,1-.25-0.68V98.81a0.89,0.89,0,0,1,.24-0.66,0.91,0.91,0,0,1,.67-0.24H153a4.85,4.85,0,0,1,3.21.94,3.38,3.38,0,0,1,1.11,2.74,3.45,3.45,0,0,1-.85,2.42,4,4,0,0,1-2.41,1.18,2.13,2.13,0,0,1,.85.45,3.89,3.89,0,0,1,.74.9l1.85,2.92A0.86,0.86,0,0,1,157.65,109.95Zm-4.88-6.08a3.26,3.26,0,0,0,2.08-.55,2.06,2.06,0,0,0,.68-1.7,2,2,0,0,0-.67-1.68,3.34,3.34,0,0,0-2.09-.53H149.4v4.46h3.37Z" transform="translate(-33.23 -82.54)" fill="#fff"/><path d="M165,110.43a0.92,0.92,0,0,1-.25-0.68V98.81a0.89,0.89,0,0,1,.24-0.66,0.91,0.91,0,0,1,.67-0.24H170a4.56,4.56,0,0,1,3.13,1,4.09,4.09,0,0,1,0,5.62,4.51,4.51,0,0,1-3.13,1h-3.4v4.23a0.94,0.94,0,0,1-.24.68,0.92,0.92,0,0,1-.69.25A0.9,0.9,0,0,1,165,110.43Zm4.81-6.41q2.66,0,2.66-2.32t-2.66-2.3h-3.2V104h3.2Z" transform="translate(-33.23 -82.54)" fill="#fff"/><path d="M186.43,109.87a0.72,0.72,0,0,1-.28.58,1,1,0,0,1-.62.23,0.79,0.79,0,0,1-.44-0.13,0.84,0.84,0,0,1-.31-0.39l-1.19-2.7H177l-1.19,2.7a0.82,0.82,0,0,1-.32.39,0.84,0.84,0,0,1-.45.13,1,1,0,0,1-.64-0.23,0.72,0.72,0,0,1-.28-0.58,1,1,0,0,1,.09-0.36l5.08-11.11a1,1,0,0,1,.41-0.45,1.14,1.14,0,0,1,1.17,0,1,1,0,0,1,.4.45l5.08,11.11A1,1,0,0,1,186.43,109.87ZM177.66,106h5.27l-2.65-6Z" transform="translate(-33.23 -82.54)" fill="#fff"/><path d="M188.6,110.36a0.83,0.83,0,0,1-.24-0.63v-11a0.93,0.93,0,0,1,.25-0.67,0.88,0.88,0,0,1,.67-0.26,0.87,0.87,0,0,1,.94.94V109h5.47a0.94,0.94,0,0,1,.64.2,0.85,0.85,0,0,1,0,1.15,0.94,0.94,0,0,1-.64.2h-6.43A0.91,0.91,0,0,1,188.6,110.36Z" transform="translate(-33.23 -82.54)" fill="#fff"/><path d="M209.29,109.87a0.72,0.72,0,0,1-.28.58,1,1,0,0,1-.62.23,0.79,0.79,0,0,1-.44-0.13,0.84,0.84,0,0,1-.31-0.39l-1.19-2.7h-6.59l-1.19,2.7a0.82,0.82,0,0,1-.32.39,0.84,0.84,0,0,1-.45.13,1,1,0,0,1-.64-0.23,0.72,0.72,0,0,1-.28-0.58,1,1,0,0,1,.09-0.36l5.08-11.11a1,1,0,0,1,.41-0.45,1.14,1.14,0,0,1,1.17,0,1,1,0,0,1,.4.45l5.08,11.11A1,1,0,0,1,209.29,109.87ZM200.52,106h5.27l-2.65-6Z" transform="translate(-33.23 -82.54)" fill="#fff"/><path d="M213.16,110a5.16,5.16,0,0,1-2.07-2.25,8.66,8.66,0,0,1,0-6.91,5.16,5.16,0,0,1,2.07-2.25,6.2,6.2,0,0,1,3.17-.78,6.8,6.8,0,0,1,2.25.37,5.48,5.48,0,0,1,1.85,1.07,0.87,0.87,0,0,1,.34.72,0.85,0.85,0,0,1-.18.55,0.54,0.54,0,0,1-.43.23,0.93,0.93,0,0,1-.59-0.23,6.37,6.37,0,0,0-1.58-.91,4.66,4.66,0,0,0-1.61-.26,3.73,3.73,0,0,0-3,1.28,6.91,6.91,0,0,0,0,7.36,3.73,3.73,0,0,0,3,1.28,4.41,4.41,0,0,0,1.58-.27,7.65,7.65,0,0,0,1.61-.9,1.18,1.18,0,0,1,.59-0.23,0.54,0.54,0,0,1,.43.23,0.85,0.85,0,0,1,.18.55,0.87,0.87,0,0,1-.34.72,5.47,5.47,0,0,1-1.85,1.07,6.8,6.8,0,0,1-2.25.37A6.2,6.2,0,0,1,213.16,110Z" transform="translate(-33.23 -82.54)" fill="#fff"/><path d="M223.23,110.35a0.89,0.89,0,0,1-.24-0.66V98.81a0.89,0.89,0,0,1,.24-0.66,0.91,0.91,0,0,1,.67-0.24h6.62a0.94,0.94,0,0,1,.64.2,0.71,0.71,0,0,1,.22.56,0.68,0.68,0,0,1-.22.55,1,1,0,0,1-.64.19H224.8v4h5.36a0.94,0.94,0,0,1,.64.2,0.8,0.8,0,0,1,0,1.12,0.94,0.94,0,0,1-.64.2H224.8v4.19h5.72a0.71,0.71,0,0,1,.86.74,0.7,0.7,0,0,1-.22.56,0.94,0.94,0,0,1-.64.2H223.9A0.91,0.91,0,0,1,223.23,110.35Z" transform="translate(-33.23 -82.54)" fill="#fff"/></svg>